#!OML:ASF I:\Random Stuff\random\construction\7_22_03\Session 2\subj1.ASF
:FULLY-SPECIFIED
:DEGREES
478
root 4.29791 17.7227 -7.85782 17.8254 -26.1886 -7.13363
lowerback 13.2602 -1.6471 0.0231835
upperback 6.03844 -2.40975 -5.77537
thorax -1.32626 -1.17552 -5.73594
lowerneck -22.0394 5.0103 -2.65595
upperneck 43.767 9.11217 -0.604282
head 21.3378 2.57863 2.21409
rclavicle -3.81667e-014 3.49861e-014
rhumerus -10.6472 49.4452 -34.9347
rradius 116.422
rwrist -42.3921
rhand -8.51422 2.48886
rfingers 7.12502
rthumb 17.414 -26.7511
lclavicle -3.81667e-014 3.49861e-014
lhumerus 7.35358 -54.2933 79.5217
lradius 45.2651
lwrist 29.5399
lhand -12.1722 54.0732
lfingers 7.12502
lthumb 13.8911 83.5893
rfemur -17.9832 -0.714062 25.4178
rtibia 5.20816e-014
rfoot 0.5259 4.44044
rtoes -31.7004
lfemur -25.1938 -4.57586 -4.03188
ltibia 26.5977
lfoot -16.053 8.99789
ltoes -28.5599
479
root 4.29536 17.7244 -7.85959 17.8946 -26.1685 -7.1627
lowerback 13.2659 -1.64317 -0.00742666
upperback 6.05515 -2.40577 -5.72621
thorax -1.30838 -1.1739 -5.66641
lowerneck -21.9793 5.03843 -2.61844
upperneck 43.7316 9.17173 -0.690218
head 21.3052 2.59842 2.17363
rclavicle 1.90833e-014 -2.54444e-014
rhumerus -10.5401 49.2342 -34.7168
rradius 116.459
rwrist -41.8795
rhand -7.90705 2.483
rfingers 7.12502
rthumb 17.9983 -26.7042
lclavicle 1.90833e-014 -2.54444e-014
lhumerus 7.29097 -54.4286 79.5456
lradius 45.7991
lwrist 30.6436
lhand -12.7641 55.4036
lfingers 7.12502
lthumb 13.3206 84.9579
rfemur -18.0398 -0.737845 25.4642
rtibia -4.6118e-014
rfoot 0.522462 4.44793
rtoes -31.3004
lfemur -25.254 -4.64356 -3.9642
ltibia 26.5887
lfoot -16.0906 9.05928
ltoes -28.3107
480
root 4.29135 17.7255 -7.86131 17.9864 -26.1558 -7.22435
lowerback 13.2396 -1.63819 -0.0250001
upperback 6.07485 -2.3979 -5.68022
thorax -1.27033 -1.1699 -5.60904
lowerneck -22.0785 5.14712 -2.74071
upperneck 43.896 9.27972 -0.394915
head 21.4081 2.64601 2.38025
rclavicle 1.59028e-014 5.725e-014
rhumerus -10.4348 49.1902 -34.54
rradius 116.46
rwrist -41.5395
rhand -7.69348 2.82576
rfingers 7.12502
rthumb 18.2037 -26.3424
lclavicle 1.59028e-014 5.725e-014
lhumerus 7.04187 -54.1458 79.7102
lradius 45.9618
lwrist 29.6516
lhand -12.9988 54.4587
lfingers 7.12502
lthumb 13.0943 84.0276
rfemur -18.0986 -0.740143 25.5469
rtibia -4.21423e-014
rfoot 0.523163 4.48542
rtoes -31.2417
lfemur -25.3208 -4.61166 -3.87782
ltibia 26.5799
lfoot -16.1027 9.05815
ltoes -28.1116
481
root 4.28799 17.7267 -7.86246 18.078 -26.1085 -7.27042
lowerback 13.2175 -1.65565 -0.0478344
upperback 6.08482 -2.42075 -5.64215
thorax -1.24794 -1.18145 -5.55235
lowerneck -22.1608 5.13404 -2.73809
upperneck 44.0248 9.22579 -0.300478
head 21.5189 2.62796 2.42421
rclavicle -2.06736e-014 1.90833e-014
rhumerus -10.2802 49.0853 -34.4001
rradius 116.46
rwrist -41.5176
rhand -7.22077 3.1611
rfingers 7.12502
rthumb 18.6585 -25.964
lclavicle -2.06736e-014 1.90833e-014
lhumerus 6.5321 -53.5107 80.0435
lradius 46.135
lwrist 27.6464
lhand -12.0002 54.2286
lfingers 7.12502
lthumb 14.0568 83.7332
rfemur -18.1644 -0.781919 25.62
rtibia -7.15625e-015
rfoot 0.520634 4.53791
rtoes -31.1843
lfemur -25.407 -4.61849 -3.79862
ltibia 26.563
lfoot -16.0493 9.08914
ltoes -28.2376
482
root 4.28715 17.7279 -7.86211 18.1415 -26.0092 -7.26953
lowerback 13.2048 -1.68755 -0.0555247
upperback 6.09661 -2.4609 -5.60625
thorax -1.23098 -1.20132 -5.50401
lowerneck -22.0485 5.14672 -2.5937
upperneck 43.9087 9.27369 -0.539201
head 21.4373 2.64646 2.27874
rclavicle 4.77083e-014 6.83819e-014
rhumerus -10.1707 49.0208 -34.2293
rradius 116.503
rwrist -41.0595
rhand -6.69513 3.40233
rfingers 7.12502
rthumb 19.164 -25.6735
lclavicle 4.77083e-014 6.83819e-014
lhumerus 6.43541 -53.6761 79.9816
lradius 46.6093
lwrist 28.8956
lhand -13.3629 54.4495
lfingers 7.12502
lthumb 12.7433 84.0406
rfemur -18.2284 -0.892466 25.6559
rtibia 4.92986e-014
rfoot 0.504611 4.57375
rtoes -31.134
lfemur -25.5034 -4.78995 -3.73646
ltibia 26.5362
lfoot -16.0018 9.21599
ltoes -28.4039
483
root 4.28659 17.7285 -7.86071 18.1743 -25.9374 -7.23528
lowerback 13.1873 -1.72094 -0.0406159
upperback 6.12457 -2.50136 -5.61182
thorax -1.19688 -1.22045 -5.5134
lowerneck -22.007 5.1642 -2.4856
upperneck 43.8898 9.31017 -0.675639
head 21.4348 2.6602 2.19617
rclavicle 2.8625e-014 0
rhumerus -10.0646 49.1858 -33.9995
rradius 116.622
rwrist -40.465
rhand -6.40295 3.66386
rfingers 7.12502
rthumb 19.445 -25.3839
lclavicle 2.8625e-014 0
lhumerus 6.76992 -54.017 79.6164
lradius 46.7614
lwrist 30.1707
lhand -13.6573 54.4275
lfingers 7.12502
lthumb 12.4595 84.0361
rfemur -18.2763 -0.98856 25.653
rtibia 9.54166e-015
rfoot 0.489309 4.57807
rtoes -31.0873
lfemur -25.5596 -5.00376 -3.70781
ltibia 26.4971
lfoot -15.9936 9.35184
ltoes -28.4166
484
root 4.28429 17.7296 -7.86057 18.1982 -25.9414 -7.21385
lowerback 13.1783 -1.7334 -0.0423838
upperback 6.14652 -2.51821 -5.64753
thorax -1.17193 -1.22818 -5.5487
lowerneck -21.9902 5.19288 -2.49591
upperneck 43.8734 9.35064 -0.661295
head 21.4139 2.67673 2.21314
rclavicle 1.06549e-013 5.88403e-014
rhumerus -9.98326 49.6099 -33.8033
rradius 116.877
rwrist -40.3871
rhand -6.47415 3.73114
rfingers 7.12502
rthumb 19.3765 -25.3235
lclavicle 1.06549e-013 5.88403e-014
lhumerus 6.90238 -54.0702 79.4501
lradius 46.6909
lwrist 29.7799
lhand -12.7111 54.0393
lfingers 7.12502
lthumb 13.3717 83.5902
rfemur -18.3053 -1.00637 25.6469
rtibia -2.66371e-014
rfoot 0.465142 4.59526
rtoes -31.0594
lfemur -25.5641 -5.07085 -3.70436
ltibia 26.4521
lfoot -15.9791 9.42258
ltoes -28.4654
485
root 4.2806 17.7306 -7.861 18.2035 -26.0047 -7.22275
lowerback 13.1929 -1.70041 -0.0856383
upperback 6.16778 -2.48023 -5.65581
thorax -1.1523 -1.20967 -5.53847
lowerneck -21.939 5.23082 -2.573
upperneck 43.8356 9.41421 -0.606204
head 21.3559 2.69961 2.2654
rclavicle 1.27222e-014 5.88403e-014
rhumerus -10.0189 50.0182 -33.7123
rradius 117.151
rwrist -40.4752
rhand -6.97478 3.77324
rfingers 7.12502
rthumb 18.8951 -25.329
lclavicle 1.27222e-014 5.88403e-014
lhumerus 6.82365 -53.8834 79.5315
lradius 46.6128
lwrist 28.6609
lhand -12.4964 53.4608
lfingers 7.12502
lthumb 13.5786 82.998
rfemur -18.2964 -0.95934 25.6553
rtibia -2.78299e-014
rfoot 0.431728 4.6193
rtoes -31.2481
lfemur -25.5162 -5.00432 -3.70764
ltibia 26.4178
lfoot -15.96 9.42414
ltoes -28.4479
486
root 4.27781 17.732 -7.85987 18.2017 -26.0588 -7.22094
lowerback 13.2091 -1.65603 -0.146275
upperback 6.18534 -2.42885 -5.64718
thorax -1.13489 -1.18492 -5.50205
lowerneck -21.9092 5.24962 -2.5671
upperneck 43.8789 9.43366 -0.588422
head 21.3763 2.7081 2.27803
rclavicle -3.81667e-014 -3.49861e-014
rhumerus -10.1256 50.0346 -33.6918
rradius 117.237
rwrist -40.142
rhand -7.08174 3.98793
rfingers 7.12502
rthumb 18.7922 -25.1243
lclavicle -3.81667e-014 -3.49861e-014
lhumerus 6.64984 -53.6055 79.7566
lradius 46.7091
lwrist 28.0065
lhand -13.7195 53.0591
lfingers 7.12502
lthumb 12.3996 82.6713
rfemur -18.2838 -0.927284 25.6507
rtibia 3.18055e-015
rfoot 0.390904 4.62726
rtoes -31.5127
lfemur -25.4771 -4.95167 -3.72596
ltibia 26.4013
lfoot -15.9425 9.41166
ltoes -28.4301
487
root 4.27766 17.7338 -7.85729 18.2402 -26.024 -7.24284
lowerback 13.2157 -1.65351 -0.135132
upperback 6.17749 -2.4239 -5.62852
thorax -1.14596 -1.1825 -5.48892
lowerneck -21.9206 5.23929 -2.55322
upperneck 44.0508 9.36744 -0.473076
head 21.4949 2.68944 2.32575
rclavicle 1.27222e-014 4.13472e-014
rhumerus -10.1769 49.809 -33.6341
rradius 117.156
rwrist -39.4894
rhand -6.77796 4.22152
rfingers 7.12502
rthumb 19.0844 -24.8622
lclavicle 1.27222e-014 4.13472e-014
lhumerus 6.47843 -53.3548 79.9924
lradius 46.8242
lwrist 27.9077
lhand -14.4039 53.2124
lfingers 7.12502
lthumb 11.7396 82.8634
rfemur -18.3051 -0.972128 25.6895
rtibia 5.68524e-014
rfoot 0.345752 4.63416
rtoes -31.8043
lfemur -25.504 -5.01982 -3.68346
ltibia 26.393
lfoot -15.9539 9.45912
ltoes -28.4292
488
root 4.27686 17.7343 -7.85467 18.3151 -25.9574 -7.31916
lowerback 13.2066 -1.67693 -0.0616403
upperback 6.16136 -2.44507 -5.60111
thorax -1.16181 -1.1922 -5.4985
lowerneck -21.985 5.24839 -2.60061
upperneck 44.3431 9.28399 -0.175145
head 21.6944 2.66947 2.4814
rclavicle 2.8625e-014 3.18055e-014
rhumerus -10.0843 49.6057 -33.5071
rradius 117.054
rwrist -39.0023
rhand -6.55023 4.31213
rfingers 7.12502
rthumb 19.3034 -24.7498
lclavicle 2.8625e-014 3.18055e-014
lhumerus 6.51382 -53.2414 80.0438
lradius 46.7417
lwrist 27.9718
lhand -14.2547 53.3386
lfingers 7.12502
lthumb 11.8835 82.9814
rfemur -18.3379 -1.02658 25.794
rtibia 2.62396e-014
rfoot 0.319869 4.62708
rtoes -32.0358
lfemur -25.5492 -5.14447 -3.55735
ltibia 26.3889
lfoot -16.0208 9.53499
ltoes -28.1331
